<?xml version="1.0" encoding="UTF-8" standalone="no"?>
<!-- Created with Inkscape (http://www.inkscape.org/) -->

<svg
   xmlns:dc="http://purl.org/dc/elements/1.1/"
   xmlns:cc="http://creativecommons.org/ns#"
   xmlns:rdf="http://www.w3.org/1999/02/22-rdf-syntax-ns#"
   xmlns:svg="http://www.w3.org/2000/svg"
   xmlns="http://www.w3.org/2000/svg"
   xmlns:xlink="http://www.w3.org/1999/xlink"
   xmlns:sodipodi="http://sodipodi.sourceforge.net/DTD/sodipodi-0.dtd"
   xmlns:inkscape="http://www.inkscape.org/namespaces/inkscape"
   width="48px"
   height="48px"
   id="svg1328"
   sodipodi:version="0.32"
   inkscape:version="0.48.4 r9939"
   sodipodi:docname="pureos.svg"
   inkscape:output_extension="org.inkscape.output.svg.inkscape"
   version="1.1">
  <sodipodi:namedview
     inkscape:cy="5.9813996"
     inkscape:cx="-2.924116"
     inkscape:zoom="5.8308257"
     inkscape:window-height="697"
     inkscape:window-width="1024"
     inkscape:pageshadow="2"
     inkscape:pageopacity="0.0"
     guidetolerance="10.0"
     gridtolerance="10.0"
     objecttolerance="10.0"
     borderopacity="0.31764706"
     bordercolor="#666"
     pagecolor="#ffffff"
     id="base"
     inkscape:showpageshadow="false"
     showgrid="false"
     inkscape:window-x="0"
     inkscape:window-y="0"
     inkscape:current-layer="g4159"
     showguides="false"
     inkscape:guide-bbox="true"
     inkscape:window-maximized="1">
    <sodipodi:guide
       orientation="horizontal"
       position="-36.856746"
       id="guide15955" />
    <sodipodi:guide
       orientation="horizontal"
       position="46.547621"
       id="guide15957" />
  </sodipodi:namedview>
  <defs
     id="defs1330">
    <linearGradient
       id="linearGradient3926">
      <stop
         style="stop-color:#ffffff;stop-opacity:1;"
         offset="0"
         id="stop3928" />
      <stop
         style="stop-color:#ffffff;stop-opacity:0;"
         offset="1"
         id="stop3930" />
    </linearGradient>
    <inkscape:perspective
       sodipodi:type="inkscape:persp3d"
       inkscape:vp_x="0 : 24 : 1"
       inkscape:vp_y="0 : 1000 : 0"
       inkscape:vp_z="48 : 24 : 1"
       inkscape:persp3d-origin="24 : 16 : 1"
       id="perspective58" />
    <linearGradient
       id="linearGradient7108">
      <stop
         style="stop-color:#000000;stop-opacity:1;"
         offset="0"
         id="stop7110" />
      <stop
         style="stop-color:#ffffff;stop-opacity:1;"
         offset="1"
         id="stop7112" />
    </linearGradient>
    <linearGradient
       id="linearGradient7100">
      <stop
         style="stop-color:#000000;stop-opacity:1;"
         offset="0"
         id="stop7102" />
      <stop
         style="stop-color:#ffffff;stop-opacity:1;"
         offset="1"
         id="stop7104" />
    </linearGradient>
    <linearGradient
       id="linearGradient2804">
      <stop
         style="stop-color:black;stop-opacity:0;"
         offset="0"
         id="stop2806" />
      <stop
         id="stop2812"
         offset="0.5"
         style="stop-color:black;stop-opacity:1;" />
      <stop
         style="stop-color:black;stop-opacity:0;"
         offset="1"
         id="stop2808" />
    </linearGradient>
    <linearGradient
       inkscape:collect="always"
       id="linearGradient2781">
      <stop
         style="stop-color:black;stop-opacity:1;"
         offset="0"
         id="stop2783" />
      <stop
         style="stop-color:black;stop-opacity:0;"
         offset="1"
         id="stop2785" />
    </linearGradient>
    <linearGradient
       inkscape:collect="always"
       id="linearGradient2782">
      <stop
         style="stop-color:white;stop-opacity:1;"
         offset="0"
         id="stop2784" />
      <stop
         style="stop-color:white;stop-opacity:0;"
         offset="1"
         id="stop2786" />
    </linearGradient>
    <linearGradient
       id="linearGradient5106">
      <stop
         style="stop-color:#729fcf;stop-opacity:1;"
         offset="0"
         id="stop5108" />
      <stop
         style="stop-color:#386ea6;stop-opacity:1;"
         offset="1"
         id="stop5110" />
    </linearGradient>
    <linearGradient
       inkscape:collect="always"
       xlink:href="#linearGradient5106"
       id="linearGradient2780"
       gradientUnits="userSpaceOnUse"
       gradientTransform="matrix(3.137165,0,0,3.184122,-1.606682,-4.861064)"
       x1="8.1771841"
       y1="5.7791729"
       x2="8.1771841"
       y2="15.676654" />
    <linearGradient
       inkscape:collect="always"
       xlink:href="#linearGradient2782"
       id="linearGradient2788"
       x1="26.0625"
       y1="23.265625"
       x2="29.03125"
       y2="55.265625"
       gradientUnits="userSpaceOnUse" />
    <radialGradient
       inkscape:collect="always"
       xlink:href="#linearGradient2781"
       id="radialGradient2827"
       gradientUnits="userSpaceOnUse"
       gradientTransform="matrix(2,0,0,0.8,-13,-79.2)"
       cx="1"
       cy="44"
       fx="1"
       fy="44"
       r="5" />
    <radialGradient
       inkscape:collect="always"
       xlink:href="#linearGradient2781"
       id="radialGradient2829"
       gradientUnits="userSpaceOnUse"
       gradientTransform="matrix(2,0,0,0.8,36,8.8)"
       cx="1"
       cy="44"
       fx="1"
       fy="44"
       r="5" />
    <linearGradient
       inkscape:collect="always"
       xlink:href="#linearGradient2804"
       id="linearGradient2831"
       gradientUnits="userSpaceOnUse"
       x1="21.875"
       y1="48.000977"
       x2="21.875"
       y2="40" />
    <linearGradient
       inkscape:collect="always"
       xlink:href="#linearGradient5106"
       id="linearGradient8141"
       gradientUnits="userSpaceOnUse"
       gradientTransform="matrix(3.3087682,0,0,3.3582938,-5.969971,-6.3358833)"
       x1="8.1771841"
       y1="5.7791729"
       x2="8.1771841"
       y2="15.676654" />
    <linearGradient
       inkscape:collect="always"
       xlink:href="#linearGradient2782"
       id="linearGradient15953"
       x1="77.297218"
       y1="16.647184"
       x2="77.480881"
       y2="52.45615"
       gradientUnits="userSpaceOnUse"
       gradientTransform="translate(-0.8601477,-1.863416)" />
    <radialGradient
       inkscape:collect="always"
       xlink:href="#linearGradient2781"
       id="radialGradient19858"
       cx="73.570084"
       cy="23.145077"
       fx="73.570084"
       fy="23.145077"
       r="20.928947"
       gradientTransform="matrix(1,0,0,0.9887118,-0.4220719,11.235137)"
       gradientUnits="userSpaceOnUse" />
    <radialGradient
       inkscape:collect="always"
       xlink:href="#linearGradient2781"
       id="radialGradient19868"
       gradientUnits="userSpaceOnUse"
       gradientTransform="matrix(2,0,0,0.8,-25.240086,-80.929141)"
       cx="1"
       cy="44"
       fx="1"
       fy="44"
       r="5" />
    <radialGradient
       inkscape:collect="always"
       xlink:href="#linearGradient2781"
       id="radialGradient19870"
       gradientUnits="userSpaceOnUse"
       gradientTransform="matrix(2,0,0,0.8,21.227482,10.529141)"
       cx="1"
       cy="44"
       fx="1"
       fy="44"
       r="5" />
    <linearGradient
       inkscape:collect="always"
       xlink:href="#linearGradient2804"
       id="linearGradient19872"
       gradientUnits="userSpaceOnUse"
       x1="21.875"
       y1="48.000977"
       x2="21.875"
       y2="40"
       gradientTransform="matrix(1,0,0,0.1481438,0,40.8891)" />
    <radialGradient
       inkscape:collect="always"
       xlink:href="#linearGradient2781"
       id="radialGradient3814"
       gradientUnits="userSpaceOnUse"
       gradientTransform="matrix(2,0,0,0.8,-13,-79.2)"
       cx="1"
       cy="44"
       fx="1"
       fy="44"
       r="5" />
    <radialGradient
       inkscape:collect="always"
       xlink:href="#linearGradient2781"
       id="radialGradient3816"
       gradientUnits="userSpaceOnUse"
       gradientTransform="matrix(2,0,0,0.8,36,8.8)"
       cx="1"
       cy="44"
       fx="1"
       fy="44"
       r="5" />
    <linearGradient
       inkscape:collect="always"
       xlink:href="#linearGradient2804"
       id="linearGradient3818"
       gradientUnits="userSpaceOnUse"
       x1="21.875"
       y1="48.000977"
       x2="21.875"
       y2="40" />
    <linearGradient
       inkscape:collect="always"
       xlink:href="#linearGradient8112-7"
       id="linearGradient8126-6"
       x1="29.854376"
       y1="50.395214"
       x2="21.795116"
       y2="15.465387"
       gradientUnits="userSpaceOnUse" />
    <linearGradient
       inkscape:collect="always"
       id="linearGradient8112-7">
      <stop
         style="stop-color:#ffffff;stop-opacity:1;"
         offset="0"
         id="stop8114-6" />
      <stop
         style="stop-color:#ffffff;stop-opacity:0;"
         offset="1"
         id="stop8116-1" />
    </linearGradient>
    <linearGradient
       inkscape:collect="always"
       xlink:href="#linearGradient8112-7"
       id="linearGradient8118-0"
       x1="33.111675"
       y1="43.542542"
       x2="25.368185"
       y2="2.4395995"
       gradientUnits="userSpaceOnUse" />
    <linearGradient
       y2="2.4395995"
       x2="25.368185"
       y1="43.542542"
       x1="33.111675"
       gradientUnits="userSpaceOnUse"
       id="linearGradient3877"
       xlink:href="#linearGradient8112-7"
       inkscape:collect="always" />
    <linearGradient
       inkscape:collect="always"
       xlink:href="#linearGradient3926"
       id="linearGradient3932"
       x1="29.069641"
       y1="17.55834"
       x2="24.610579"
       y2="5.1244259"
       gradientUnits="userSpaceOnUse"
       spreadMethod="reflect" />
    <linearGradient
       gradientTransform="translate(135.57256,-0.6002583)"
       inkscape:collect="always"
       xlink:href="#linearGradient3926-7"
       id="linearGradient3932-0"
       x1="29.069641"
       y1="17.55834"
       x2="24.610579"
       y2="5.1244259"
       gradientUnits="userSpaceOnUse"
       spreadMethod="reflect" />
    <linearGradient
       id="linearGradient3926-7">
      <stop
         style="stop-color:#ffffff;stop-opacity:1;"
         offset="0"
         id="stop3928-2" />
      <stop
         style="stop-color:#ffffff;stop-opacity:0;"
         offset="1"
         id="stop3930-9" />
    </linearGradient>
    <radialGradient
       inkscape:collect="always"
       xlink:href="#linearGradient2781-0"
       id="radialGradient3814-1"
       gradientUnits="userSpaceOnUse"
       gradientTransform="matrix(2,0,0,0.8,-13,-79.2)"
       cx="1"
       cy="44"
       fx="1"
       fy="44"
       r="5" />
    <linearGradient
       inkscape:collect="always"
       id="linearGradient2781-0">
      <stop
         style="stop-color:black;stop-opacity:1;"
         offset="0"
         id="stop2783-0" />
      <stop
         style="stop-color:black;stop-opacity:0;"
         offset="1"
         id="stop2785-8" />
    </linearGradient>
    <radialGradient
       inkscape:collect="always"
       xlink:href="#linearGradient2781-0"
       id="radialGradient3816-3"
       gradientUnits="userSpaceOnUse"
       gradientTransform="matrix(2,0,0,0.8,36,8.8)"
       cx="1"
       cy="44"
       fx="1"
       fy="44"
       r="5" />
    <linearGradient
       inkscape:collect="always"
       xlink:href="#linearGradient2804-2"
       id="linearGradient3818-1"
       gradientUnits="userSpaceOnUse"
       x1="21.875"
       y1="48.000977"
       x2="21.875"
       y2="40" />
    <linearGradient
       id="linearGradient2804-2">
      <stop
         style="stop-color:black;stop-opacity:0;"
         offset="0"
         id="stop2806-5" />
      <stop
         id="stop2812-2"
         offset="0.5"
         style="stop-color:black;stop-opacity:1;" />
      <stop
         style="stop-color:black;stop-opacity:0;"
         offset="1"
         id="stop2808-1" />
    </linearGradient>
    <linearGradient
       gradientUnits="userSpaceOnUse"
       y2="15.465387"
       x2="21.795116"
       y1="50.395214"
       x1="29.854376"
       id="linearGradient8126"
       xlink:href="#linearGradient8112"
       inkscape:collect="always" />
    <linearGradient
       gradientUnits="userSpaceOnUse"
       y2="2.4395995"
       x2="25.368185"
       y1="43.542542"
       x1="33.111675"
       id="linearGradient8118"
       xlink:href="#linearGradient8112"
       inkscape:collect="always" />
    <linearGradient
       y2="40"
       x2="21.875"
       y1="48.000977"
       x1="21.875"
       gradientUnits="userSpaceOnUse"
       id="linearGradient19886"
       xlink:href="#linearGradient2804-0"
       inkscape:collect="always" />
    <radialGradient
       r="5"
       fy="44"
       fx="1"
       cy="44"
       cx="1"
       gradientTransform="matrix(2,0,0,0.8,36,8.8)"
       gradientUnits="userSpaceOnUse"
       id="radialGradient19884"
       xlink:href="#linearGradient2781-00"
       inkscape:collect="always" />
    <radialGradient
       r="5"
       fy="44"
       fx="1"
       cy="44"
       cx="1"
       gradientTransform="matrix(2,0,0,0.8,-13,-79.2)"
       gradientUnits="userSpaceOnUse"
       id="radialGradient19882"
       xlink:href="#linearGradient2781-00"
       inkscape:collect="always" />
    <linearGradient
       gradientTransform="matrix(1,0,0,0.1481438,0,40.8891)"
       y2="40"
       x2="21.875"
       y1="48.000977"
       x1="21.875"
       gradientUnits="userSpaceOnUse"
       id="linearGradient19872-2"
       xlink:href="#linearGradient2804-0"
       inkscape:collect="always" />
    <radialGradient
       r="5"
       fy="44"
       fx="1"
       cy="44"
       cx="1"
       gradientTransform="matrix(2,0,0,0.8,21.227482,10.529141)"
       gradientUnits="userSpaceOnUse"
       id="radialGradient19870-2"
       xlink:href="#linearGradient2781-00"
       inkscape:collect="always" />
    <radialGradient
       r="5"
       fy="44"
       fx="1"
       cy="44"
       cx="1"
       gradientTransform="matrix(2,0,0,0.8,-25.240086,-80.929141)"
       gradientUnits="userSpaceOnUse"
       id="radialGradient19868-1"
       xlink:href="#linearGradient2781-00"
       inkscape:collect="always" />
    <radialGradient
       gradientUnits="userSpaceOnUse"
       gradientTransform="matrix(1,0,0,0.9887118,-0.4220719,11.235137)"
       r="20.928947"
       fy="23.145077"
       fx="73.570084"
       cy="23.145077"
       cx="73.570084"
       id="radialGradient19858-8"
       xlink:href="#linearGradient2781-00"
       inkscape:collect="always" />
    <linearGradient
       gradientTransform="translate(-0.8601477,-1.863416)"
       gradientUnits="userSpaceOnUse"
       y2="52.45615"
       x2="77.480881"
       y1="16.647184"
       x1="77.297218"
       id="linearGradient15953-4"
       xlink:href="#linearGradient2782-4"
       inkscape:collect="always" />
    <linearGradient
       y2="15.676654"
       x2="8.1771841"
       y1="5.7791729"
       x1="8.1771841"
       gradientTransform="matrix(3.3087682,0,0,3.3582938,-5.969971,-6.3358833)"
       gradientUnits="userSpaceOnUse"
       id="linearGradient8141-4"
       xlink:href="#linearGradient5106-2"
       inkscape:collect="always" />
    <linearGradient
       y2="40"
       x2="21.875"
       y1="48.000977"
       x1="21.875"
       gradientUnits="userSpaceOnUse"
       id="linearGradient2831-5"
       xlink:href="#linearGradient2804-0"
       inkscape:collect="always" />
    <radialGradient
       r="5"
       fy="44"
       fx="1"
       cy="44"
       cx="1"
       gradientTransform="matrix(2,0,0,0.8,36,8.8)"
       gradientUnits="userSpaceOnUse"
       id="radialGradient2829-2"
       xlink:href="#linearGradient2781-00"
       inkscape:collect="always" />
    <radialGradient
       r="5"
       fy="44"
       fx="1"
       cy="44"
       cx="1"
       gradientTransform="matrix(2,0,0,0.8,-13,-79.2)"
       gradientUnits="userSpaceOnUse"
       id="radialGradient2827-9"
       xlink:href="#linearGradient2781-00"
       inkscape:collect="always" />
    <linearGradient
       gradientUnits="userSpaceOnUse"
       y2="55.265625"
       x2="29.03125"
       y1="23.265625"
       x1="26.0625"
       id="linearGradient2788-3"
       xlink:href="#linearGradient2782-4"
       inkscape:collect="always" />
    <linearGradient
       y2="15.676654"
       x2="8.1771841"
       y1="5.7791729"
       x1="8.1771841"
       gradientTransform="matrix(3.137165,0,0,3.184122,-1.606682,-4.861064)"
       gradientUnits="userSpaceOnUse"
       id="linearGradient2780-6"
       xlink:href="#linearGradient5106-2"
       inkscape:collect="always" />
    <linearGradient
       id="linearGradient5106-2">
      <stop
         id="stop5108-9"
         offset="0"
         style="stop-color:#729fcf;stop-opacity:1;" />
      <stop
         id="stop5110-4"
         offset="1"
         style="stop-color:#386ea6;stop-opacity:1;" />
    </linearGradient>
    <linearGradient
       id="linearGradient2782-4"
       inkscape:collect="always">
      <stop
         id="stop2784-0"
         offset="0"
         style="stop-color:white;stop-opacity:1;" />
      <stop
         id="stop2786-3"
         offset="1"
         style="stop-color:white;stop-opacity:0;" />
    </linearGradient>
    <linearGradient
       id="linearGradient2781-00"
       inkscape:collect="always">
      <stop
         id="stop2783-2"
         offset="0"
         style="stop-color:black;stop-opacity:1;" />
      <stop
         id="stop2785-0"
         offset="1"
         style="stop-color:black;stop-opacity:0;" />
    </linearGradient>
    <linearGradient
       id="linearGradient2804-0">
      <stop
         id="stop2806-57"
         offset="0"
         style="stop-color:black;stop-opacity:0;" />
      <stop
         style="stop-color:black;stop-opacity:1;"
         offset="0.5"
         id="stop2812-6" />
      <stop
         id="stop2808-7"
         offset="1"
         style="stop-color:black;stop-opacity:0;" />
    </linearGradient>
    <linearGradient
       id="linearGradient7100-5">
      <stop
         id="stop7102-0"
         offset="0"
         style="stop-color:#000000;stop-opacity:1;" />
      <stop
         id="stop7104-7"
         offset="1"
         style="stop-color:#ffffff;stop-opacity:1;" />
    </linearGradient>
    <linearGradient
       id="linearGradient7108-4">
      <stop
         id="stop7110-1"
         offset="0"
         style="stop-color:#000000;stop-opacity:1;" />
      <stop
         id="stop7112-2"
         offset="1"
         style="stop-color:#ffffff;stop-opacity:1;" />
    </linearGradient>
    <linearGradient
       id="linearGradient8112"
       inkscape:collect="always">
      <stop
         id="stop8114"
         offset="0"
         style="stop-color:#ffffff;stop-opacity:1;" />
      <stop
         id="stop8116"
         offset="1"
         style="stop-color:#ffffff;stop-opacity:0;" />
    </linearGradient>
    <inkscape:perspective
       id="perspective58-8"
       inkscape:persp3d-origin="24 : 16 : 1"
       inkscape:vp_z="48 : 24 : 1"
       inkscape:vp_y="0 : 1000 : 0"
       inkscape:vp_x="0 : 24 : 1"
       sodipodi:type="inkscape:persp3d" />
    <radialGradient
       inkscape:collect="always"
       xlink:href="#linearGradient2781-0"
       id="radialGradient4189"
       gradientUnits="userSpaceOnUse"
       gradientTransform="matrix(2,0,0,0.8,-13,-79.2)"
       cx="1"
       cy="44"
       fx="1"
       fy="44"
       r="5" />
    <radialGradient
       inkscape:collect="always"
       xlink:href="#linearGradient2781-0"
       id="radialGradient4191"
       gradientUnits="userSpaceOnUse"
       gradientTransform="matrix(2,0,0,0.8,36,8.8)"
       cx="1"
       cy="44"
       fx="1"
       fy="44"
       r="5" />
    <linearGradient
       inkscape:collect="always"
       xlink:href="#linearGradient2804-2"
       id="linearGradient4193"
       gradientUnits="userSpaceOnUse"
       x1="21.875"
       y1="48.000977"
       x2="21.875"
       y2="40" />
    <linearGradient
       inkscape:collect="always"
       xlink:href="#linearGradient3926-7"
       id="linearGradient4195"
       gradientUnits="userSpaceOnUse"
       gradientTransform="translate(135.57256,-0.6002583)"
       spreadMethod="reflect"
       x1="29.069641"
       y1="17.55834"
       x2="24.610579"
       y2="5.1244259" />
  </defs>
  <sodipodi:namedview
     id="namedview21"
     pagecolor="#ffffff"
     bordercolor="#666666"
     borderopacity="1.0"
     inkscape:pageopacity="0.0"
     inkscape:pageshadow="2"
     inkscape:zoom="9.8994949"
     inkscape:cx="24"
     inkscape:cy="24"
     inkscape:current-layer="layer1"
     showgrid="true"
     inkscape:grid-bbox="true"
     inkscape:document-units="px"
     inkscape:window-width="736"
     inkscape:window-height="851"
     inkscape:window-x="214"
     inkscape:window-y="28" />
  <metadata
     id="metadata1333">
    <rdf:RDF>
      <cc:Work
         rdf:about="">
        <dc:format>image/svg+xml</dc:format>
        <dc:type
           rdf:resource="http://purl.org/dc/dcmitype/StillImage" />
        <dc:title></dc:title>
        <dc:subject>
          <rdf:Bag>
            <rdf:li>go</rdf:li>
            <rdf:li>seek</rdf:li>
            <rdf:li>home</rdf:li>
          </rdf:Bag>
        </dc:subject>
        <dc:creator>
          <cc:Agent>
            <dc:title>Rodney Dawes</dc:title>
          </cc:Agent>
        </dc:creator>
        <dc:contributor>
          <cc:Agent>
            <dc:title>Jakub Steiner</dc:title>
          </cc:Agent>
        </dc:contributor>
        <cc:license
           rdf:resource="http://creativecommons.org/licenses/GPL/2.0/" />
      </cc:Work>
      <cc:License
         rdf:about="http://creativecommons.org/licenses/GPL/2.0/">
        <cc:permits
           rdf:resource="http://web.resource.org/cc/Reproduction" />
        <cc:permits
           rdf:resource="http://web.resource.org/cc/Distribution" />
        <cc:requires
           rdf:resource="http://web.resource.org/cc/Notice" />
        <cc:permits
           rdf:resource="http://web.resource.org/cc/DerivativeWorks" />
        <cc:requires
           rdf:resource="http://web.resource.org/cc/ShareAlike" />
        <cc:requires
           rdf:resource="http://web.resource.org/cc/SourceCode" />
      </cc:License>
    </rdf:RDF>
  </metadata>
  <g
     id="layer1"
     inkscape:label="Layer 1"
     inkscape:groupmode="layer">
    <g
       id="g4159"
       transform="translate(-135.51971,0.60635214)">
      <g
         id="g3050"
         transform="matrix(0.02701121,0,0,0.02828277,149.65806,7.5548964)">
        <path
           style="fill:#e9e9e9"
           d="m -479.8,1073.1622 c -1.74979,-1.7498 -1.74979,-1079.850228 0,-1081.600017 1.75055,-1.750548 1707.8495,-1.750548 1709.6,0 1.7498,1.749789 1.7498,1079.850217 0,1081.600017 -1.7505,1.7505 -1707.84945,1.7505 -1709.6,0 z M 1107,532.36218 l 0,-418 -732,0 -732,0 0,418 0,418 732,0 732,0 0,-418 z"
           id="path3064"
           inkscape:connector-curvature="0" />
        <path
           style="fill:#d1d1d1"
           d="m -479.5368,1072.1128 c -0.26097,-0.6878 -0.35944,-244.02562 -0.21884,-540.75062 L -479.5,-8.137817 l 854.5,0 854.5,0 0,540.499997 0,540.50002 -854.28116,0.2506 c -682.902,0.2003 -854.37635,-3e-4 -854.75564,-1 z M 1107.5,532.36218 l 0,-418.5 -732.5,0 -732.5,0 -0.25578,417.5 c -0.14069,229.625 -0.0422,418.06281 0.21887,418.75068 0.37939,0.99965 147.45397,1.20036 732.75579,1 l 732.28112,-0.25068 0,-418.5 z"
           id="path3062"
           inkscape:connector-curvature="0" />
        <path
           style="fill:#b7b7b7"
           d="m -478.8,1072.1622 c -1.74978,-1.7498 -1.74978,-1077.850232 0,-1079.600017 1.75055,-1.750546 1705.8495,-1.750546 1707.6,0 1.7498,1.749785 1.7498,1077.850217 0,1079.600017 -1.7505,1.7505 -1705.84945,1.7505 -1707.6,0 z M 1108,532.36218 l 0,-419 -733,0 -733,0 0,419 0,419 733,0 733,0 0,-419 z"
           id="path3060"
           inkscape:connector-curvature="0" />
        <path
           style="fill:#878787"
           d="m -478.5368,1071.1128 c -0.26097,-0.6878 -0.35945,-243.57562 -0.21884,-539.75062 L -478.5,-7.137817 l 853.5,0 853.5,0 0,539.499997 0,539.50002 -853.28116,0.2506 c -682.102,0.2003 -853.37635,-3e-4 -853.75564,-1 z M 1108.5,532.36218 l 0,-419.5 -733.5,0 -733.5,0 -0.25578,418.5 c -0.14068,230.175 -0.0422,419.06281 0.21887,419.75068 0.37939,0.99965 147.65397,1.20036 733.75579,1 l 733.28112,-0.25068 0,-419.5 z"
           id="path3058"
           inkscape:connector-curvature="0" />
        <path
           style="fill:#777777"
           d="m -477.8,1071.1622 c -1.74978,-1.7498 -1.74978,-1075.850236 0,-1077.600017 1.75054,-1.750545 1703.8495,-1.750545 1705.6,0 1.7498,1.749781 1.7498,1075.850217 0,1077.600017 -1.7505,1.7505 -1703.84946,1.7505 -1705.6,0 z M 1109,532.36218 l 0,-420 -734,0 -734,0 0,420 0,420 734,0 734,0 0,-420 z"
           id="path3056"
           inkscape:connector-curvature="0" />
        <path
           style="fill:#474747"
           d="m -478,532.36218 0,-538.999997 853,0 853,0 0,538.999997 0,539.00002 -853,0 -853,0 0,-539.00002 z m 1587.5,0 0,-420.5 -734.5,0 -734.5,0 -0.25578,419.5 c -0.14068,230.725 -0.0422,420.0628 0.21887,420.75068 0.37939,0.99965 147.85397,1.20036 734.75579,1 l 734.28112,-0.25068 0,-420.5 z"
           id="path3054"
           inkscape:connector-curvature="0" />
        <path
           style="fill:#323232"
           d="m -477,532.36218 0,-537.999997 852,0 852,0 0,537.999997 0,538.00002 -852,0 -852,0 0,-538.00002 z m 1586.8,420.8 c 1.7492,-1.7492 1.7492,-839.8508 0,-841.6 -1.7503,-1.75033 -1467.84967,-1.75033 -1469.6,0 -1.7492,1.7492 -1.7492,839.8508 0,841.6 1.75033,1.75033 1467.8497,1.75033 1469.6,0 z"
           id="path3052"
           inkscape:connector-curvature="0" />
      </g>
    </g>
  </g>
  <g
     inkscape:groupmode="layer"
     id="layer3"
     inkscape:label="Capa#1"
     style="display:none">
    <path
       inkscape:connector-curvature="0"
       style="opacity:0.40825692;color:#000000;fill:url(#linearGradient3932);fill-opacity:1;fill-rule:nonzero;stroke:none;stroke-width:1.00000024;marker:none;visibility:visible;display:inline;overflow:visible;enable-background:accumulate"
       d="m 27.865257,43.710328 c -1.112952,-0.150751 -2.337124,-0.449604 -2.880418,-0.703184 -1.255762,-0.586116 -2.45737,-1.418484 -2.885569,-1.998872 -0.112196,-0.152081 -0.390678,-0.423583 -0.618855,-0.603339 -0.907091,-0.71463 -1.436977,-1.467016 -2.518247,-3.575682 -0.122848,-0.239579 -0.506672,-2.179445 -0.647948,-3.274782 -0.111637,-0.865575 -0.102664,-2.594916 0.01758,-3.386468 0.149209,-0.98217 0.453987,-2.273875 0.601636,-2.549743 0.124252,-0.232181 0.432997,-1.232238 0.528963,-1.713436 0.03626,-0.181798 0.117594,-0.394288 0.180747,-0.472201 0.06314,-0.07791 0.193466,-0.417897 0.289601,-0.75552 0.09614,-0.337624 0.320229,-0.908117 0.497998,-1.267764 0.39813,-0.805485 0.585236,-1.405639 0.586576,-1.881444 5.72e-4,-0.199774 0.07085,-0.603415 0.156193,-0.896979 0.208969,-0.718813 0.128414,-2.742869 -0.139637,-3.509021 -0.203585,-0.581868 -0.70075,-1.559055 -1.223132,-2.404076 -1.082337,-1.750836 -4.176002,-3.904983 -6.017066,-4.189742 -0.705743,-0.109157 -3.041579,0.01163 -4.0456496,0.209202 -0.8596218,0.169148 -1.6693288,0.545347 -2.0844308,0.968451 -1.064728,1.085229 -1.686977,1.818373 -1.932139,2.276457 -0.353639,0.660795 -0.572934,1.674412 -0.633109,2.926421 -0.068369,1.422819 -0.00892,1.720251 0.622093,3.111916 0.532527,1.174452 1.964614,2.360996 3.5401098,2.933118 0.735408,0.267055 1.0154246,0.316591 2.0776806,0.367548 1.464913,0.07027 2.089269,-0.03592 2.745892,-0.467019 0.255787,-0.167938 0.656323,-0.417662 0.890054,-0.554942 1.066912,-0.626613 1.624162,-1.808353 1.619623,-3.43469 -0.0028,-1.008064 -0.362054,-1.918894 -0.970856,-2.461533 -0.37857,-0.337431 -1.714223,-1.14108 -2.102339,-1.264958 -0.676183,-0.215821 -1.548497,-0.07892 -2.479336,0.389098 -0.453142,0.227836 -0.904412,0.524499 -1.002835,0.659251 -0.098411,0.134753 -0.3213076,0.62348 -0.4953056,1.086061 -0.17401,0.462582 -0.351272,0.841058 -0.393916,0.841058 -0.1691988,0 -0.1258128,-0.733634 0.076692,-1.297072 0.289692,-0.805976 0.580633,-1.225328 1.1544376,-1.663906 0.646855,-0.494424 1.281057,-0.738891 2.13839,-0.824292 1.114694,-0.111037 1.289276,-0.0798 2.253447,0.403159 1.121717,0.561869 1.460725,0.893284 2.014489,1.969346 0.661031,1.284493 0.742002,1.637979 0.595446,2.599448 -0.166559,1.092661 -0.541045,2.196775 -0.976968,2.880396 -0.397467,0.623316 -1.138468,1.191123 -2.469803,1.892539 -0.954847,0.503057 -1.280875,0.590881 -2.54989,0.686862 -1.3887396,0.105038 -2.1983176,0.01486 -3.2581804,-0.362922 -0.467474,-0.166631 -1.048888,-0.359869 -1.292021,-0.429414 -0.324078,-0.09271 -0.743342,-0.380392 -1.5711,-1.078071 -1.420669,-1.197412 -1.648937,-1.58457 -1.925052,-3.265031 -0.102416,-0.623305 -0.199605,-1.438669 -0.215978,-1.81192 -0.016374,-0.373251 -0.056261,-0.721519 -0.088657,-0.77393 -0.067758,-0.109626 0.089476,-2.008475 0.247269,-2.986115 0.130078,-0.805956 0.189578,-0.928504 1.119207,-2.305167 0.551709,-0.816991 0.914464,-1.240149 1.430032,-1.668144 1.667053,-1.3838697 2.756153,-1.9576707 4.6493404,-2.4495297 1.312647,-0.341033 1.316094,-0.341384 2.92764,-0.298571 1.704327,0.045279 2.611509,0.151723 3.224147,0.378307 4.142982,1.532264 5.77721,2.8737517 7.899863,6.4847637 0.678784,1.154732 1.32681,1.980197 2.498103,3.182101 0.861936,0.884467 1.137778,1.106289 1.688252,1.357648 0.887192,0.405115 1.925051,0.552633 3.916456,0.556667 1.896492,0.0038 2.614135,-0.139766 3.440892,-0.688564 0.262941,-0.174537 0.690033,-0.411069 0.949098,-0.525627 0.259065,-0.114558 0.556548,-0.285163 0.661078,-0.379121 0.10453,-0.09396 0.42379,-0.29356 0.70948,-0.443556 0.65603,-0.344449 1.42167,-1.111788 1.70127,-1.705038 0.33673,-0.714501 0.85186,-1.5632 1.1374,-1.873932 0.19465,-0.211812 0.28435,-0.441122 0.35538,-0.908554 0.05227,-0.343878 0.18417,-0.799976 0.29313,-1.013551 0.27381,-0.536709 0.36642,-1.670696 0.16781,-2.0547717 -0.08092,-0.156472 -0.20804,-0.607085 -0.28248,-1.001359 -0.26428,-1.399635 -1.64891,-3.032054 -3.23793,-3.817395 -0.57633,-0.284837 -0.82075,-0.345481 -1.721103,-0.427039 -1.871158,-0.169496 -3.240937,0.119258 -4.319905,0.910652 -1.019652,0.747887 -1.459893,1.116824 -1.459893,1.223432 0,0.111678 -0.469815,0.660474 -0.619492,0.723625 -0.207343,0.087491 -0.60823,0.753695 -0.60823,1.010791 0,0.152688 -0.08309,0.46544 -0.184636,0.695004 -0.387219,0.875382 -0.319331,1.5844017 0.292423,3.0536847 0.348021,0.835859 0.454625,1.030992 0.799707,1.463822 0.462636,0.580264 0.949006,0.849183 1.810527,1.001053 1.002484,0.176716 1.504409,0.163963 2.138936,-0.05435 1.254578,-0.431636 2.127986,-1.167899 2.579476,-2.174428 0.203116,-0.452821 0.228125,-0.622633 0.19504,-1.324403 -0.03327,-0.705395 -0.07787,-0.874807 -0.36061,-1.3693807 -0.17747,-0.310419 -0.487606,-0.743524 -0.689214,-0.962456 -0.201607,-0.218932 -0.351792,-0.442358 -0.333741,-0.496504 0.05236,-0.157084 1.002173,0.535564 1.302022,0.9495 0.459863,0.634827 0.607623,1.2723867 0.540223,2.3312077 -0.07398,1.162432 -0.391274,1.84193 -1.288702,2.759813 -0.6924,0.708178 -1.388012,1.04873 -2.548705,1.247767 -0.944703,0.161997 -2.14423,-0.05862 -2.901643,-0.533675 -0.918197,-0.575899 -1.49026,-1.16618 -2.011953,-2.076004 -0.428575,-0.747453 -0.50913,-0.978697 -0.70733,-2.030505 -0.236123,-1.2530867 -0.235655,-2.2758097 0.0012,-2.5562827 0.06579,-0.077913 0.16964,-0.386449 0.230778,-0.685635 0.06114,-0.299187 0.206576,-0.66042 0.323207,-0.802741 0.116631,-0.142321 0.348424,-0.545355 0.515112,-0.895632 0.245201,-0.515299 0.374669,-0.673404 0.678237,-0.82827 0.206342,-0.105273 0.375176,-0.233726 0.375176,-0.285453 0,-0.051727 0.145438,-0.163399 0.323181,-0.248163 0.177756,-0.084764 0.343924,-0.23342 0.369271,-0.33035 0.02719,-0.104005 0.272122,-0.275367 0.597605,-0.418114 0.303348,-0.133034 0.782825,-0.350241 1.065534,-0.482682 0.282695,-0.132441 1.068915,-0.378033 1.747139,-0.54576 1.172477,-0.289958 1.288887,-0.301647 2.366412,-0.237648 1.082077,0.064268 1.158417,0.082714 1.689357,0.408195 0.30583,0.187488 0.70957,0.390591 0.89718,0.451342 0.18761,0.060752 0.67337,0.348973 1.07948,0.640493 0.4061,0.291518 0.88044,0.615966 1.05409,0.720994 0.17364,0.105026 0.596,0.478229 0.93858,0.829339 0.71098,0.728694 1.45698,2.087381 1.70245,3.100622 0.08008,0.330595 0.23041,0.89857 0.33405,1.262165 0.16122,0.5656747 0.18021,0.8314467 0.13149,1.8415807 -0.1517,3.146103 -1.22161,5.567567 -3.29355,7.454221 -0.2597,0.236482 -0.78077,0.736675 -1.15792,1.111537 -0.76319,0.758554 -1.67381,1.385104 -2.80856,1.932441 -0.415539,0.200429 -0.991646,0.488337 -1.280259,0.639797 -0.882082,0.462918 -2.231143,0.667017 -4.408861,0.667017 -2.130041,0 -2.366541,0.03229 -4.811777,0.656928 -0.874734,0.223454 -1.162007,0.344996 -1.666858,0.705255 -0.853783,0.609246 -1.838853,1.878368 -2.607841,3.359822 -0.121326,0.233738 -0.296559,0.509976 -0.389404,0.61386 -0.307743,0.344362 -0.545622,1.050579 -0.562113,1.668854 -0.04061,1.522775 0.02199,4.223809 0.105798,4.564192 0.129961,0.52783 0.372041,1.083044 0.617659,1.416601 0.318498,0.432516 0.85083,1.405096 0.975004,1.781347 0.06667,0.201978 0.290615,0.486616 0.560969,0.712969 0.247503,0.207223 0.571854,0.552596 0.720777,0.767493 0.323675,0.467057 1.494097,1.101649 2.195288,1.190266 0.245591,0.03104 0.533229,0.11023 0.639196,0.17598 0.105967,0.06575 0.424699,0.167593 0.708305,0.226311 0.614915,0.127318 2.007063,-0.04731 2.810307,-0.352512 0.493809,-0.187634 1.658821,-0.868541 2.279159,-1.332082 0.464938,-0.347422 1.098398,-1.246947 1.284607,-1.824145 0.08794,-0.272617 0.211856,-0.580662 0.275347,-0.684547 0.327083,-0.535104 0.403918,-1.623506 0.247673,-3.508243 -0.05986,-0.72207 -0.137141,-1.071344 -0.31344,-1.416601 -0.128687,-0.252032 -0.332311,-0.663088 -0.452492,-0.913457 -0.367893,-0.766429 -2.139157,-2.048525 -2.850402,-2.063216 -0.118387,-0.0024 -0.50026,-0.06373 -0.848619,-0.136195 -0.668913,-0.139143 -1.645348,-0.06897 -2.049434,0.147286 -0.496788,0.265876 -1.131276,0.741153 -1.537547,1.151733 -0.361013,0.364849 -0.487359,0.588679 -0.684441,1.212552 -0.226239,0.71615 -0.236279,0.827567 -0.156934,1.741309 0.09698,1.116812 0.287338,1.633487 0.818447,2.22136 0.423607,0.468885 0.784451,0.665839 1.740481,0.94999 0.694273,0.206351 1.350648,0.21983 1.959762,0.04024 0.357697,-0.10546 0.235955,0.108997 -0.164347,0.289507 -0.565443,0.25498 -1.90107,0.157481 -2.782593,-0.203122 -0.881743,-0.360696 -1.649691,-1.072512 -2.058433,-1.90798 -0.294309,-0.601567 -0.306872,-0.673645 -0.306872,-1.760529 0,-1.080888 0.01347,-1.159477 0.291474,-1.699921 0.160303,-0.311653 0.389494,-0.757768 0.509299,-0.991369 0.119804,-0.2336 0.4675,-0.665268 0.772642,-0.959261 0.450424,-0.43394 0.692257,-0.582077 1.285063,-0.787168 1.631861,-0.564563 3.617985,-0.418169 4.838386,0.356626 1.11602,0.708525 2.094406,1.532797 2.466616,2.078083 0.683739,1.001676 1.178017,2.185864 1.249949,2.994632 0.03466,0.389566 0.101532,1.08124 0.148624,1.537054 0.08071,0.781387 0.06696,0.902835 -0.240727,2.124902 -0.480506,1.90851 -0.743342,2.415861 -1.67669,3.236431 -0.421995,0.371016 -0.925455,0.755835 -1.118791,0.855156 -0.193349,0.09932 -0.490831,0.300449 -0.661083,0.446952 -0.461622,0.397213 -1.337604,0.865753 -1.618609,0.865753 -0.13597,0 -0.513279,0.101392 -0.838475,0.225315 -0.642382,0.244807 -1.834756,0.537131 -2.115787,0.518715 -0.09646,-0.0063 -0.55786,-0.0633 -1.025334,-0.12662 z"
       id="path2243-5" />
  </g>
  <g
     inkscape:groupmode="layer"
     id="layer2"
     inkscape:label="Capa"
     style="display:inline" />
</svg>
